<?xml version="1.0" encoding="UTF-8" standalone="no"?>
<svg
   xmlns:dc="http://purl.org/dc/elements/1.1/"
   xmlns:cc="http://creativecommons.org/ns#"
   xmlns:rdf="http://www.w3.org/1999/02/22-rdf-syntax-ns#"
   xmlns:svg="http://www.w3.org/2000/svg"
   xmlns="http://www.w3.org/2000/svg"
   xmlns:sodipodi="http://sodipodi.sourceforge.net/DTD/sodipodi-0.dtd"
   xmlns:inkscape="http://www.inkscape.org/namespaces/inkscape"
   width="300mm"
   height="175mm"
   viewBox="0 0 300 175"
   version="1.1"
   id="svg8">
  <defs
     id="defs2">
    <rect
       x="37.809074"
       y="24.487673"
       width="311.23383"
       height="89.950554"
       id="rect860" />
    <rect
       x="368.31537"
       y="131.06631"
       width="184.14555"
       height="65.486633"
       id="rect895" />
    <rect
       x="123.41909"
       y="103.06777"
       width="263.68585"
       height="176.88786"
       id="rect861" />
    <rect
       x="-92.429436"
       y="-19.136511"
       width="72.370018"
       height="109.22579"
       id="rect1014" />
    <rect
       x="-24.02615"
       y="29.845381"
       width="66.966904"
       height="235.78503"
       id="rect967" />
    <rect
       x="109.98237"
       y="71.427589"
       width="37.616222"
       height="35.61797"
       id="rect880" />
    <rect
       x="38.092335"
       y="131.59943"
       width="8.2558794"
       height="28.893293"
       id="rect837" />
    <rect
       x="368.31537"
       y="131.06631"
       width="184.14555"
       height="65.486633"
       id="rect895-8" />
    <rect
       x="368.31537"
       y="131.06631"
       width="184.14555"
       height="65.486633"
       id="rect905" />
  </defs>
  <sodipodi:namedview
     id="base"
     pagecolor="#ffffff"
     bordercolor="#666666"
     borderopacity="1.0"
     inkscape:pageopacity="0"
     inkscape:pageshadow="2"
     inkscape:zoom="0.35"
     inkscape:cx="424.98156"
     inkscape:cy="470.75179"
     inkscape:document-units="mm"
     inkscape:current-layer="g1046"
     inkscape:document-rotation="0"
     showgrid="false"
     inkscape:pagecheckerboard="false"
     showborder="true"
     borderlayer="false"
     inkscape:showpageshadow="true"
     inkscape:window-width="1848"
     inkscape:window-height="1016"
     inkscape:window-x="72"
     inkscape:window-y="27"
     inkscape:window-maximized="1" />
  <metadata
     id="metadata5">
    <rdf:RDF>
      <cc:Work
         rdf:about="">
        <dc:format>image/svg+xml</dc:format>
        <dc:type
           rdf:resource="http://purl.org/dc/dcmitype/StillImage" />
        <dc:title />
      </cc:Work>
    </rdf:RDF>
  </metadata>
  <g
     inkscape:label="Capa 1"
     inkscape:groupmode="layer"
     id="layer1">
    <text
       xml:space="preserve"
       id="text878"
       style="font-style:normal;font-weight:normal;font-size:10.5833px;line-height:1.25;font-family:sans-serif;white-space:pre;shape-inside:url(#rect880);fill:#000000;fill-opacity:1;stroke:none;" />
    <g
       id="g998">
      <g
         id="g982">
        <g
           id="g1046"
           transform="matrix(1.3340125,0,0,1.3180561,-28.946798,-23.266825)">
          <g
             id="g894"
             transform="matrix(1.1406677,0,0,1.1406677,-17.069398,-11.385902)"
             style="fill:#00a659;fill-opacity:1">
            <g
               aria-label="Lingva"
               id="text858"
               style="font-style:normal;font-weight:normal;font-size:68.1074px;line-height:1.25;font-family:sans-serif;white-space:pre;shape-inside:url(#rect860);fill:#00a659;fill-opacity:1;stroke:none">
              <path
                 d="m 47.219919,43.111398 q 2.560678,0 4.090435,1.429989 1.529756,1.42999 1.4965,3.52509 l -0.565345,28.865832 14.299894,-0.631856 q 1.563011,-0.09977 2.726956,1.130689 1.163945,1.197201 1.130689,2.760212 v 0.06651 q 0,2.194868 -1.097433,3.358812 -1.13069,1.13069 -2.760212,1.13069 H 47.419452 q -1.928823,0 -3.292301,-1.330223 -1.330222,-1.330223 -1.330222,-3.292301 V 48.066477 q 0,-1.995333 1.429989,-3.458578 1.429989,-1.496501 2.893234,-1.496501 z"
                 style="font-style:normal;font-variant:normal;font-weight:normal;font-stretch:normal;font-size:68.1074px;font-family:Dyuthi;-inkscape-font-specification:Dyuthi;fill:#00a659;fill-opacity:1"
                 id="path873" />
              <path
                 d="m 79.112007,84.980156 c -1.374563,0 -2.549593,-0.476663 -3.52509,-1.42999 -0.953326,-0.975497 -1.429989,-2.150527 -1.429989,-3.52509 V 60.404292 c 0,-1.374563 0.487748,-2.549593 1.463245,-3.52509 0.997667,-0.975496 2.161611,-1.463244 3.491834,-1.463244 h 0.06651 c 1.330223,0 2.483082,0.487748 3.458579,1.463244 0.975497,0.975497 1.463245,2.150527 1.463245,3.52509 v 19.620784 c 0,1.374563 -0.487748,2.549593 -1.463245,3.52509 -0.975497,0.975497 -2.128356,1.45216 -3.458579,1.42999 z"
                 style="font-style:normal;font-variant:normal;font-weight:normal;font-stretch:normal;font-size:68.1074px;font-family:Dyuthi;-inkscape-font-specification:Dyuthi;fill:#00a659;fill-opacity:1"
                 id="path875"
                 sodipodi:nodetypes="scsscsssssscs" />
              <path
                 d="m 119.48426,69.283529 q 0,0 0.0665,12.038514 0,1.895568 -1.39673,3.292301 -0.96441,0.931156 -3.35881,0.897901 h -0.0333 q -2.36114,0 -3.2923,-0.897901 -1.39673,-1.330222 -1.39673,-3.292301 V 68.718184 q 0,-4.755546 -2.89324,-6.185535 -2.92649,-1.42999 -6.2853,0.5986 -3.358811,2.028589 -3.192533,4.057179 v 14.133615 q 0,1.962079 -1.330222,3.292301 -0.931156,0.931156 -3.292301,0.897901 0,0 -0.166278,0 -2.361145,0 -3.292301,-0.897901 -1.396734,-1.396733 -1.396734,-3.292301 V 57.677336 q 0,-1.296967 0.964411,-2.194867 0.964412,-0.897901 2.128357,-0.897901 h 3.458578 q 1.296968,0 2.161612,0.964412 0.864645,0.931156 0.864645,2.061845 v 0.06651 q 4.788806,-2.826723 7.116696,-3.22579 7.98133,-1.363478 12.23804,4.12369 2.29464,3.026257 2.32789,10.708293 z"
                 style="font-style:normal;font-variant:normal;font-weight:normal;font-stretch:normal;font-size:68.1074px;font-family:Dyuthi;-inkscape-font-specification:Dyuthi;fill:#00a659;fill-opacity:1"
                 id="path877" />
              <path
                 d="m 145.35709,74.537908 q 0,0 0,-10.907826 -0.66511,-1.928822 -3.52509,-3.026256 -2.85998,-1.097434 -5.88623,0.399067 -1.46325,0.731622 -2.32789,2.593934 -0.86465,1.862311 -0.83139,4.156946 v 3.624856 q 0,3.392068 1.82905,5.85298 1.89557,2.427656 4.48951,2.427656 1.46324,0.232789 3.02625,-0.266044 3.15928,-1.097434 3.22579,-4.855313 z m 1.62952,-20.019851 h 3.89091 q 1.62952,0 2.82672,1.197201 1.1972,1.1972 1.23045,2.859978 v 24.609119 h -0.0665 q -0.0998,6.983669 -4.45624,10.542014 -4.35648,3.591602 -10.77481,3.192535 -0.43232,-0.03326 -2.06184,-0.03326 -1.62952,0.03326 -5.52042,0 -1.82906,0 -2.89324,-1.529756 -1.06418,-1.529756 -0.46558,-3.22579 l 0.0665,-0.03325 q 0.86465,-2.427657 3.39207,-2.394401 3.45858,0.06651 7.41599,0.06651 5.95275,0 5.71996,-6.850646 -3.2923,1.928822 -7.05018,1.962078 -6.05251,0 -10.30922,-4.489501 -4.25672,-4.489502 -4.25672,-10.874571 0,-6.385068 4.25672,-10.87457 4.25671,-4.489501 10.30922,-4.489501 3.75788,0 7.11669,1.962078 0.0333,-0.631855 0.49884,-1.097433 0.46557,-0.498834 1.13068,-0.498834 z"
                 style="font-style:normal;font-variant:normal;font-weight:normal;font-stretch:normal;font-size:68.1074px;font-family:Dyuthi;-inkscape-font-specification:Dyuthi;fill:#00a659;fill-opacity:1"
                 id="path879" />
              <path
                 d="m 182.57007,54.584568 q 0,0 0.13303,0 2.42765,0 3.82439,1.962079 1.36347,1.895567 0.53208,4.223457 l -6.55134,18.756139 q -0.83139,2.427656 -2.993,3.957412 -2.16161,1.529756 -4.75555,1.496501 h -0.13302 q -2.66045,0 -4.7888,-1.596268 -2.12836,-1.629522 -2.85998,-3.990667 l -5.88624,-18.623117 q -0.73162,-2.361146 0.5986,-4.223457 1.33023,-1.928823 3.75788,-1.962079 h 0.5986 q 1.46325,0 2.79347,0.931156 1.33022,0.964412 1.69603,2.361145 3.19254,11.805726 4.38974,18.024517 h 0.19953 q 1.13069,-5.354146 5.02159,-18.024517 0.43233,-1.429989 1.69604,-2.361145 1.33022,-0.931156 2.72695,-0.931156 z"
                 style="font-style:normal;font-variant:normal;font-weight:normal;font-stretch:normal;font-size:68.1074px;font-family:Dyuthi;-inkscape-font-specification:Dyuthi;fill:#00a659;fill-opacity:1"
                 id="path881" />
              <path
                 d="m 200.16227,69.017484 q 0,0 0,2.194867 0,3.458579 1.82906,5.886236 1.82905,2.427656 4.42299,2.361145 1.52975,0.166278 3.09277,-0.2993 3.15927,-1.097434 3.15927,-4.788802 0,0 0,-11.240381 -0.5986,-1.895567 -3.45858,-2.959746 -2.85997,-1.097433 -5.95274,0.365812 -3.09277,1.429989 -3.09277,8.480169 z m -4.85531,11.47317 q -4.25671,-4.489501 -4.25671,-10.841314 0,-6.385069 4.25671,-10.87457 4.25671,-4.489502 10.30922,-4.489502 5.08811,0 7.05018,4.489502 0,-1.463245 1.09744,-2.560679 0.96441,-0.964411 2.42765,-0.964411 h 2.56068 q 1.46325,0 2.49417,0.964411 1.03092,1.097434 1.03092,2.560679 v 24.276563 q 0,0.864645 -0.5986,1.396734 -0.56534,0.532089 -1.36348,0.532089 h -3.99066 q -0.86465,0 -1.99534,-1.197201 -1.13069,-1.1972 -2.02859,-1.330222 -0.8979,-0.133023 -1.69603,0.399066 -3.2923,2.128357 -4.98834,2.128357 -6.05251,0 -10.30922,-4.489502 z"
                 style="font-style:normal;font-variant:normal;font-weight:normal;font-stretch:normal;font-size:68.1074px;font-family:Dyuthi;-inkscape-font-specification:Dyuthi;fill:#00a659;fill-opacity:1"
                 id="path883" />
            </g>
            <path
               sodipodi:type="star"
               style="fill:#00a659;fill-opacity:1;stroke-width:0.396874"
               id="path901-4"
               sodipodi:sides="5"
               sodipodi:cx="62.212276"
               sodipodi:cy="21.296686"
               sodipodi:r1="13.796687"
               sodipodi:r2="6.0469499"
               sodipodi:arg1="-1.5707963"
               sodipodi:arg2="-0.9424778"
               inkscape:flatsided="false"
               inkscape:rounded="0"
               inkscape:randomized="0"
               inkscape:transform-center-y="-0.80382891"
               transform="matrix(0.88787695,-0.00301931,0.00309921,0.93356903,23.631841,23.631817)"
               inkscape:transform-center-x="0.014935358"
               d="m 62.212277,7.499999 3.554307,8.904602 9.567122,0.628675 -7.370438,6.13202 2.358497,9.293145 -8.109489,-5.114805 -8.109489,5.114804 2.358498,-9.293144 -7.370438,-6.132021 9.567121,-0.628674 z" />
          </g>
          <g
             aria-label="Translate"
             transform="matrix(1.1060457,0,0,1.1060446,-369.41697,-53.843221)"
             id="text893"
             style="font-style:normal;font-variant:normal;font-weight:normal;font-stretch:normal;font-size:46.5578px;line-height:1.25;font-family:'Noto Color Emoji';-inkscape-font-specification:'Noto Color Emoji';white-space:pre;shape-inside:url(#rect895-8);fill:#007439;fill-opacity:1;stroke:none">
            <path
               d="m 387.96184,172.25915 h -13.54832 v -1.72264 l 3.95742,-0.60525 q 0.46558,-0.0466 0.69836,-0.27935 0.23279,-0.27935 0.23279,-0.74492 v -21.1838 h -2.00198 q -1.11739,0 -2.04854,0.0931 -0.93116,0.0931 -1.39674,0.27935 -0.41902,0.13967 -0.65181,0.37246 -0.23279,0.23279 -0.27934,0.65181 l -1.11739,4.7489 h -2.04855 q -0.13967,-2.14166 -0.0931,-4.09709 0.0931,-1.95543 0.27935,-3.95741 h 22.48741 q 0.23279,2.00198 0.23279,3.95741 0.0466,1.95543 -0.13967,4.09709 h -2.00199 l -1.11738,-4.7489 q -0.0466,-0.41902 -0.27935,-0.65181 -0.23279,-0.23279 -0.55869,-0.37246 -0.51214,-0.18623 -1.39674,-0.27935 -0.8846,-0.0931 -2.04854,-0.0931 h -2.04854 v 21.1838 q 0,0.46557 0.23278,0.74492 0.23279,0.23279 0.69837,0.27935 l 3.95741,0.60525 z"
               style="font-style:normal;font-variant:normal;font-weight:normal;font-stretch:normal;font-size:46.5578px;font-family:Rasa;-inkscape-font-specification:Rasa;fill:#007439;fill-opacity:1"
               id="path857" />
            <path
               d="m 406.63146,170.58307 v 1.67608 h -10.98764 v -1.72264 l 2.04854,-0.32591 q 0.46558,-0.0465 0.69837,-0.3259 0.23279,-0.27935 0.23279,-0.74493 v -12.52404 q 0,-0.46558 -0.23279,-0.74493 -0.18623,-0.3259 -0.69837,-0.37246 l -2.32789,-0.32591 v -1.67608 q 1.35018,-0.41902 2.88659,-0.65181 1.58296,-0.23278 2.93314,-0.27934 l 0.55869,0.55869 0.37246,3.11937 q 1.07083,-1.44329 2.79347,-2.60723 1.7692,-1.16395 3.63151,-1.16395 0.46558,0 1.16395,0.13968 0.69836,0.13967 1.16394,0.3259 0.0931,1.44329 -0.0466,3.25905 -0.0931,1.76919 -0.41902,3.21248 H 408.68 l -0.51213,-2.60723 q -0.13968,-0.5587 -0.41902,-0.79148 -0.23279,-0.23279 -0.74493,-0.23279 -1.16394,0 -2.421,0.51213 -1.25706,0.51214 -2.32789,1.58297 v 11.26698 q 0,0.46558 0.23279,0.74493 0.27934,0.27935 0.74492,0.3259 z"
               style="font-style:normal;font-variant:normal;font-weight:normal;font-stretch:normal;font-size:46.5578px;font-family:Rasa;-inkscape-font-specification:Rasa;fill:#007439;fill-opacity:1"
               id="path859" />
            <path
               d="m 419.99345,170.25716 q 1.2105,0 2.46756,-0.41902 1.25706,-0.46558 2.14166,-1.2105 v -4.56267 l -3.25905,0.32591 q -2.04854,0.13967 -3.16593,0.93116 -1.07082,0.74492 -1.07082,2.32789 0,1.2105 0.69836,1.90887 0.74493,0.69836 2.18822,0.69836 z m 7.82171,2.28133 q -1.2105,0 -2.00199,-0.60525 -0.79148,-0.65181 -1.07083,-1.81575 -1.07082,1.16394 -2.70035,1.86231 -1.58296,0.65181 -3.35216,0.65181 -2.32789,0 -3.91085,-1.16395 -1.53641,-1.2105 -1.53641,-3.49183 0,-1.48985 0.65181,-2.46756 0.69836,-0.97772 1.76919,-1.58297 1.07083,-0.60525 2.42101,-0.8846 1.35018,-0.3259 2.65379,-0.41902 l 3.8643,-0.3259 v -2.28133 q 0,-2.6538 -1.07083,-3.67807 -1.02427,-1.07083 -3.16593,-1.07083 -1.58296,0 -3.02626,0.51214 -1.44329,0.51213 -2.65379,1.67608 l -0.8846,-0.83804 q 0.69837,-2.00199 2.79347,-3.02626 2.14166,-1.02427 4.79545,-1.02427 3.35216,0 5.02825,1.72264 1.72263,1.72264 1.72263,5.21447 v 9.54435 q 0,0.55869 0.23279,0.83804 0.27935,0.23279 0.79149,0.27935 l 1.90887,0.18623 v 1.58296 q -0.46558,0.13968 -1.48985,0.37247 -0.97772,0.23278 -1.7692,0.23278 z"
               style="font-style:normal;font-variant:normal;font-weight:normal;font-stretch:normal;font-size:46.5578px;font-family:Rasa;-inkscape-font-specification:Rasa;fill:#007439;fill-opacity:1"
               id="path861" />
            <path
               d="m 443.13264,170.53651 v 1.72264 h -9.40468 v -1.72264 l 2.04854,-0.32591 q 0.46558,-0.0465 0.69837,-0.3259 0.23279,-0.27935 0.23279,-0.74493 v -12.61716 q 0,-0.41902 -0.23279,-0.69837 -0.18623,-0.27934 -0.65181,-0.3259 l -2.37445,-0.32591 v -1.67608 q 1.39674,-0.41902 2.9797,-0.65181 1.58297,-0.23278 2.88659,-0.27934 l 0.65181,0.60525 0.23278,2.0951 q 1.4433,-1.48985 3.16594,-2.0951 1.72263,-0.60525 3.58495,-0.60525 3.35216,0 4.56266,1.95543 1.2105,1.95542 1.2105,5.44726 v 9.17188 q 0,0.46558 0.23279,0.74493 0.27935,0.27935 0.69837,0.3259 l 2.0951,0.32591 v 1.72264 h -9.40468 v -1.72264 l 1.86232,-0.32591 q 0.41902,-0.0931 0.65181,-0.3259 0.27934,-0.23279 0.27934,-0.74493 v -8.52007 q 0,-2.79347 -0.79148,-4.14365 -0.74492,-1.39673 -2.93314,-1.39673 -1.39674,0 -2.70035,0.41902 -1.25706,0.41902 -2.37445,1.25706 v 12.38437 q 0,0.46558 0.23279,0.74493 0.23279,0.23279 0.65181,0.3259 z"
               style="font-style:normal;font-variant:normal;font-weight:normal;font-stretch:normal;font-size:46.5578px;font-family:Rasa;-inkscape-font-specification:Rasa;fill:#007439;fill-opacity:1"
               id="path863" />
            <path
               d="m 458.86914,171.23488 q -0.18623,-1.39674 -0.13967,-2.70036 0.0466,-1.35017 0.18623,-2.51412 h 1.95543 l 0.69836,2.56068 q 0.13968,0.55869 0.27935,0.8846 0.18623,0.27935 0.51214,0.51214 0.46557,0.27934 1.39673,0.60525 0.93116,0.3259 2.14166,0.3259 1.76919,0 2.65379,-0.79148 0.93116,-0.83804 0.93116,-2.18822 0,-1.62952 -1.35018,-2.421 -1.35017,-0.79149 -3.8643,-1.81576 -2.28133,-0.93115 -3.77118,-2.0951 -1.44329,-1.2105 -1.44329,-3.53839 0,-2.74691 2.00199,-4.14365 2.00198,-1.44329 5.16791,-1.44329 1.48985,0 3.07282,0.32591 1.58296,0.3259 2.65379,0.79148 0.0466,1.2105 -0.0466,2.46756 -0.0931,1.25706 -0.3259,2.51412 h -1.81575 l -0.5587,-2.37444 q -0.0931,-0.46558 -0.27935,-0.74493 -0.18623,-0.3259 -0.6518,-0.60525 -0.37247,-0.18623 -0.97772,-0.37246 -0.60525,-0.18623 -1.39673,-0.23279 -1.48985,-0.0466 -2.46757,0.65181 -0.97771,0.69837 -0.97771,2.14166 0,1.72264 1.35018,2.46756 1.39673,0.69837 3.07281,1.35018 1.16395,0.46557 2.23478,0.97771 1.11738,0.51214 1.95542,1.2105 0.8846,0.69837 1.39674,1.67608 0.51213,0.97772 0.51213,2.28134 0,2.70035 -2.0951,4.1902 -2.0951,1.48985 -5.44726,1.48985 -2.00199,0 -3.72462,-0.46558 -1.72264,-0.51214 -2.84003,-0.97771 z"
               style="font-style:normal;font-variant:normal;font-weight:normal;font-stretch:normal;font-size:46.5578px;font-family:Rasa;-inkscape-font-specification:Rasa;fill:#007439;fill-opacity:1"
               id="path865" />
            <path
               d="m 482.70673,142.36904 v 26.77073 q 0,0.46558 0.23279,0.74493 0.23278,0.27935 0.6518,0.3259 l 2.46757,0.37247 v 1.67608 H 475.6765 v -1.72264 l 2.46756,-0.32591 q 0.46558,-0.0465 0.69837,-0.27934 0.23279,-0.27935 0.23279,-0.74493 V 145.7212 q 0,-0.46558 -0.23279,-0.69837 -0.23279,-0.27934 -0.69837,-0.3259 l -2.56068,-0.37246 v -1.53641 q 1.4433,-0.46558 3.25905,-0.69837 1.86231,-0.23279 3.3056,-0.27934 z"
               style="font-style:normal;font-variant:normal;font-weight:normal;font-stretch:normal;font-size:46.5578px;font-family:Rasa;-inkscape-font-specification:Rasa;fill:#007439;fill-opacity:1"
               id="path867" />
            <path
               d="m 495.32388,170.25716 q 1.2105,0 2.46756,-0.41902 1.25706,-0.46558 2.14166,-1.2105 v -4.56267 l -3.25905,0.32591 q -2.04854,0.13967 -3.16593,0.93116 -1.07083,0.74492 -1.07083,2.32789 0,1.2105 0.69837,1.90887 0.74493,0.69836 2.18822,0.69836 z m 7.82171,2.28133 q -1.2105,0 -2.00199,-0.60525 -0.79148,-0.65181 -1.07083,-1.81575 -1.07083,1.16394 -2.70035,1.86231 -1.58296,0.65181 -3.35216,0.65181 -2.32789,0 -3.91086,-1.16395 -1.5364,-1.2105 -1.5364,-3.49183 0,-1.48985 0.65181,-2.46756 0.69836,-0.97772 1.76919,-1.58297 1.07083,-0.60525 2.42101,-0.8846 1.35017,-0.3259 2.65379,-0.41902 l 3.8643,-0.3259 v -2.28133 q 0,-2.6538 -1.07083,-3.67807 -1.02427,-1.07083 -3.16593,-1.07083 -1.58296,0 -3.02626,0.51214 -1.44329,0.51213 -2.65379,1.67608 l -0.8846,-0.83804 q 0.69837,-2.00199 2.79347,-3.02626 2.14166,-1.02427 4.79545,-1.02427 3.35216,0 5.02824,1.72264 1.72264,1.72264 1.72264,5.21447 v 9.54435 q 0,0.55869 0.23279,0.83804 0.27935,0.23279 0.79148,0.27935 l 1.90887,0.18623 v 1.58296 q -0.46557,0.13968 -1.48985,0.37247 -0.97771,0.23278 -1.76919,0.23278 z"
               style="font-style:normal;font-variant:normal;font-weight:normal;font-stretch:normal;font-size:46.5578px;font-family:Rasa;-inkscape-font-specification:Rasa;fill:#007439;fill-opacity:1"
               id="path869" />
            <path
               d="m 511.38628,167.46369 v -12.01191 l -2.93314,-0.37246 v -1.58297 l 2.14166,-0.3259 q 0.46558,-0.0466 0.69836,-0.27935 0.27935,-0.23279 0.32591,-0.65181 l 1.25706,-4.98168 h 2.0951 l 0.0466,5.77317 h 6.33186 v 2.28133 h -6.2853 v 10.94108 q 0,2.23478 0.69836,2.9797 0.74493,0.69837 2.04855,0.69837 1.07083,0 1.95542,-0.37246 0.93116,-0.37247 1.58297,-1.11739 l 1.02427,0.97771 q -0.74492,1.58297 -2.32789,2.42101 -1.58296,0.79148 -3.49183,0.79148 -2.09511,0 -3.63151,-1.07083 -1.53641,-1.07083 -1.53641,-4.09709 z"
               style="font-style:normal;font-variant:normal;font-weight:normal;font-stretch:normal;font-size:46.5578px;font-family:Rasa;-inkscape-font-specification:Rasa;fill:#007439;fill-opacity:1"
               id="path871" />
            <path
               d="m 533.31492,154.38095 q -1.81576,0 -3.02626,1.30362 -1.2105,1.25706 -1.53641,4.05053 h 8.47352 q 0.0466,-0.23279 0.0466,-0.41902 0.0466,-0.18623 0.0466,-0.41902 0,-2.00199 -1.07083,-3.25905 -1.02427,-1.25706 -2.93314,-1.25706 z m 7.4958,13.688 q -0.60525,2.04854 -2.60723,3.3056 -1.95543,1.25706 -4.88857,1.25706 -4.32988,0 -6.42498,-2.74691 -2.0951,-2.79347 -2.0951,-7.07679 0,-4.84201 2.46756,-7.58892 2.46757,-2.74691 6.56465,-2.74691 3.11938,0 5.0748,1.72264 2.00199,1.67608 2.00199,4.93513 0,0.46558 -0.0466,1.16394 -0.0466,0.65181 -0.13967,1.21051 h -12.10503 q 0,0.0931 0,0.23278 0,0.13968 0,0.27935 0,4.56267 1.62952,6.33186 1.62953,1.7692 4.09709,1.7692 1.62952,0 3.02626,-0.69837 1.44329,-0.74492 2.28133,-2.04854 z"
               style="font-style:normal;font-variant:normal;font-weight:normal;font-stretch:normal;font-size:46.5578px;font-family:Rasa;-inkscape-font-specification:Rasa;fill:#007439;fill-opacity:1"
               id="path874" />
          </g>
        </g>
      </g>
    </g>
  </g>
</svg>
